<?xml version="1.0" encoding="UTF-8"?>
<svg width="180px" height="132px" viewBox="0 0 180 132" version="1.1" xmlns="http://www.w3.org/2000/svg" xmlns:xlink="http://www.w3.org/1999/xlink">
    <title>Element 1</title>
    <g id="Page-1" stroke="none" stroke-width="1" fill="none" fill-rule="evenodd">
        <g id="Element-1" fill-rule="nonzero">
            <path d="M49.88,89.7 C49.88,86.7 49.88,83.7 49.88,80.7 C49.88,80.06 49.99,79.79 50.7,79.81 C52.26,79.87 53.82,79.81 55.38,79.81 C55.97,79.81 56.26,79.91 56.2,80.58 C56.1920089,81.0712727 56.2187422,81.562496 56.28,82.05 C56.62,81.72 56.97,81.4 57.28,81.05 C59.5384384,78.9426708 62.9111775,78.5647615 65.58,80.12 C66.2536656,80.6106689 66.838719,81.2126314 67.31,81.9 C67.53,82.17 67.6,82.21 67.8,81.97 C68,81.73 68.02,81.73 68.12,81.61 C70.45,79.07 73.35,78.7 76.46,79.61 C78.82,80.31 79.94,82.18 80.32,84.49 C80.5001097,85.6345255 80.5903852,86.7913897 80.5900012,87.95 C80.5900012,91.46 80.5900012,94.95 80.5900012,98.5 C80.5900012,99.44 80.5900012,99.45 79.59,99.45 L75.06,99.45 C74.06,99.45 74.12,99.53 74.12,98.45 C74.12,95.14 74.12,91.82 74.12,88.45 C74.1185866,87.732172 74.0312997,87.0170907 73.86,86.32 C73.5759285,85.1858065 72.5158634,84.4213771 71.35,84.51 C70.1783589,84.3717863 69.0961445,85.1541101 68.86,86.31 C68.6485232,87.160526 68.5410706,88.0335779 68.54,88.91 C68.54,92.02 68.54,95.14 68.54,98.26 C68.54,99.39 68.54,99.39 67.47,99.39 C65.95,99.39 64.43,99.39 62.91,99.39 C62,99.39 61.99,99.39 61.98,98.48 C61.98,95.24 61.98,92 61.98,88.76 C61.9954254,87.964747 61.9250181,87.1701504 61.77,86.39 C61.7013797,85.3364994 60.8257307,84.5177676 59.77,84.52 C58.5788619,84.2915721 57.3964135,84.9545879 56.97,86.09 C56.6417936,87.112576 56.4599902,88.176463 56.43,89.25 C56.36,92.33 56.43,95.41 56.43,98.49 C56.43,99.38 56.43,99.39 55.52,99.39 C53.92,99.39 52.32,99.39 50.73,99.39 C50.07,99.39 49.93,99.17 49.94,98.57 C49.89,95.7 49.88,92.7 49.88,89.7 Z" id="Path" fill="#180D1E"></path>
            <path d="M22.63,10.69 C21.63,10.69 20.71,10.69 19.75,10.69 C19.38,10.69 19.2,10.62 19.1,10.21 C18.655483,8.18593182 16.9098542,6.71075257 14.84,6.61 C12.5881026,6.14126715 10.2771827,7.08700318 9,9 C7.08,11.87 7.15,17 9,19.94 C10.809237,22.4300269 14.209206,23.1471741 16.87,21.6 C18.0285956,20.8739058 18.8079563,19.6737635 19,18.32 C19.11,17.64 19.34,17.42 20.05,17.45 C21.81,17.51 23.57,17.45 25.33,17.45 C26.33,17.45 26.26,17.45 26.17,18.35 C25.52,24.54 20.8,28.1 15.27,28.48 C10.27,28.82 6.05,27.31 3.04,23.14 C0.893235006,20.0584815 -0.00712474787,16.2783996 0.52,12.56 C0.76101375,9.79735769 1.83898049,7.17395643 3.61,5.04 C6.83,1.3 11,-1.77635684e-15 15.76,0.52 C18.9391434,0.811803505 21.8867256,2.3070576 24,4.7 C25.269069,6.15255796 26.0583926,7.96171553 26.26,9.88 C26.35,10.61 26.26,10.68 25.52,10.69 L22.63,10.69 Z" id="Path" fill="#180C1E"></path>
            <path d="M13.91,100 C7.14,100.2 1.6,95.34 0.64,88.38 C-0.0100309235,84.6384128 0.783330533,80.7895376 2.86,77.61 C5.32597639,73.7923307 9.66455959,71.6077355 14.2,71.9 C17.8841838,71.8575687 21.4133357,73.3804469 23.91,76.09 C25.2276135,77.5561055 26.0498647,79.4000474 26.26,81.36 C26.33,81.89 26.26,82.18 25.59,82.17 C23.67,82.17 21.75,82.17 19.83,82.17 C19.42,82.17 19.2,82.08 19.08,81.63 C18.44,79.11 16.55,78.14 14.19,78 C12.011273,77.7165477 9.88588224,78.8171253 8.86,80.76 C7.0801966,83.9733454 7.0801966,87.8766546 8.86,91.09 C10.52,94.28 14.62,94.54 16.99,93.09 C18.1561442,92.3486077 18.927211,91.1222443 19.09,89.75 C19.2,89.11 19.46,88.95 20.09,88.96 C21.89,88.96 23.69,88.96 25.49,88.96 C26.37,88.96 26.35,88.96 26.26,89.8 C25.6,96.22 20.59,99.87 14.68,100 C14.39,100 14.15,100 13.91,100 Z" id="Path" fill="#180D1E"></path>
            <path d="M22.67,46.45 L19.67,46.45 C19.34,46.45 19.22,46.35 19.1,46.01 C18.1,43.38 16.76,42.41 14.18,42.3 C11.6584456,41.9915459 9.25911918,43.4693317 8.4,45.86 C7.25730225,48.5803197 7.23215358,51.6412721 8.33,54.38 C9.59,57.66 12.59,58.73 15.63,57.91 C17.3562964,57.4968348 18.6771401,56.1054415 19,54.36 C19.28,53.2 19.29,53.2 20.51,53.2 C22.23,53.2 23.95,53.2 25.67,53.2 C26.19,53.2 26.35,53.35 26.3,53.89 C25.9438459,59.0193703 22.0818622,63.2177203 17,64 C12.48,64.82 8.34,64 4.85,60.88 C2.77152094,58.9769878 1.36770065,56.4501113 0.85,53.68 C-0.0928143928,49.7513485 0.569396655,45.6089305 2.69,42.17 C4.92437991,38.4619873 8.93085487,36.1877347 13.26,36.17 C16.5561834,35.9655366 19.8135677,36.9719119 22.42,39 C24.5712788,40.5842424 25.9632735,42.9948582 26.26,45.65 C26.33,46.24 26.26,46.55 25.55,46.51 C24.6,46.41 23.63,46.45 22.67,46.45 Z" id="Path" fill="#180C1D"></path>
            <path d="M156.73,89.63 C156.73,92.27 156.78,94.92 156.73,97.55 C156.719144,98.667168 156.571375,99.7787922 156.29,100.86 C155.596367,103.434773 153.483132,105.380663 150.86,105.86 C147.931866,106.582678 144.864584,106.517123 141.97,105.67 C139.594263,105.052921 137.806245,103.092375 137.41,100.67 C137.32,100.26 137.27,100.01 137.83,100.02 C139.63,100.02 141.43,100.02 143.23,100.02 C143.406388,99.9973443 143.584547,100.045744 143.725226,100.154535 C143.865905,100.263327 143.95756,100.423584 143.98,100.6 C144.21949,101.340856 144.867167,101.875385 145.64,101.97 C145.870413,102.027802 146.104198,102.071219 146.34,102.1 C148.9,102.33 150.34,101.5 150.48,98.62 C150.48,97.98 150.48,97.34 150.48,96.7 C150.469844,96.5488511 150.449801,96.3985295 150.42,96.25 C150.289118,96.3057745 150.16499,96.3762255 150.05,96.46 C148.246079,98.2555026 145.667312,99.0362611 143.170404,98.542896 C140.673495,98.049531 138.58547,96.3466593 137.6,94 C136.155539,90.8231518 136.155539,87.1768482 137.6,84 C139.17737,80.4747808 143.024147,78.5534853 146.79,79.41 C148.05383,79.6644148 149.179165,80.3766523 149.95,81.41 C150.089879,81.5292526 150.244473,81.6300749 150.41,81.71 C150.41,81.55 150.47,81.4 150.48,81.24 C150.56,79.82 150.56,79.82 151.96,79.82 C153.36,79.82 154.61,79.82 155.96,79.82 C156.62,79.82 156.75,80.03 156.75,80.64 C156.72,83.64 156.74,86.64 156.73,89.63 Z M143.05,88.79 C143.134119,89.543264 143.260991,90.291137 143.43,91.03 C143.74036,92.5360843 145.072321,93.6125434 146.61,93.6 C148.269525,93.7939969 149.822932,92.7499034 150.27,91.14 C150.846521,89.5008149 150.738382,87.6984909 149.97,86.14 C149.399012,84.8554434 148.06891,84.0815655 146.67,84.22 C145.309875,84.1810685 144.08743,85.0449297 143.67,86.34 C143.419276,87.1448809 143.212307,87.9627442 143.05,88.79 L143.05,88.79 Z" id="Shape" fill="#180C1D"></path>
            <path d="M83.72,92.83 L83.72,80.83 C83.72,79.68 83.61,79.83 84.72,79.83 C86.15,79.83 87.59,79.83 89.03,79.83 C89.68,79.83 90.03,79.97 89.91,80.67 C89.9035715,81.006119 89.9371406,81.3418098 90.01,81.67 C90.24,81.47 90.49,81.28 90.7,81.06 C92.77,78.86 96.59,78.7 99.37,80.2 C101.41636,81.3486681 102.8913,83.2983435 103.44,85.58 C104.550881,88.9131961 104.328698,92.5469754 102.82,95.72 C101.919819,97.5724109 100.317625,98.9890006 98.3688908,99.6554751 C96.4201569,100.32195 94.2860294,100.183196 92.44,99.27 C91.8007614,98.873989 91.1953652,98.4257951 90.63,97.93 L90.26,97.67 C90.2157234,97.8065558 90.1855657,97.9472918 90.17,98.09 C90.17,100.236667 90.17,102.393333 90.17,104.56 C90.1550084,104.839799 90.1550084,105.120201 90.17,105.4 C90.17,105.86 90.04,106.02 89.56,106.01 C87.85,106.01 86.13,105.96 84.41,106.01 C83.69,106.01 83.67,105.7 83.67,105.16 C83.67,101.25 83.67,97.33 83.67,93.42 L83.72,92.83 Z M89.9,89.22 C89.97,90.02 90,90.54 90.08,91.06 C90.1477303,91.5305617 90.2513661,91.9952513 90.39,92.45 C90.6792164,93.9204268 91.9614705,94.9854913 93.46,95 C94.9890431,95.2160972 96.4552596,94.3128406 96.95,92.85 C97.8362205,90.8945536 97.9046216,88.6661185 97.14,86.66 C96.7150431,85.2332712 95.4182938,84.2435404 93.93,84.21 C92.357432,84.1951706 90.9551807,85.197356 90.46,86.69 C90.2164549,87.51973 90.0293604,88.3649959 89.9,89.22 Z" id="Shape" fill="#16081B"></path>
            <path d="M74.92,50.17 L74.92,37.81 C74.92,36.67 74.92,36.67 76.1,36.67 C77.58,36.67 79.06,36.67 80.54,36.67 C81.46,36.67 81.47,36.67 81.48,37.57 C81.48,40.05 81.48,42.57 81.48,45.01 C81.48,45.29 81.48,45.57 81.48,45.85 C81.4902691,45.9681274 81.5103382,46.085197 81.54,46.2 C81.6724111,46.1431384 81.7968028,46.0691758 81.91,45.98 C84.02,43.56 86.75,43.15 89.68,43.73 C92.61,44.31 94.34,46.47 94.48,49.73 C94.56,51.73 94.48,53.65 94.48,55.61 C94.48,58.05 94.48,60.49 94.48,62.93 C94.48,63.57 94.28,63.73 93.66,63.72 C92.02,63.72 90.38,63.72 88.74,63.72 C88.06,63.72 87.96,63.47 87.97,62.89 C87.97,59.49 87.97,56.09 87.97,52.69 C87.98686,52.2521109 87.9634281,51.8135989 87.9,51.38 C87.61,49.76 86.9,49.05 85.46,48.86 C84.0465613,48.6312565 82.6474758,49.3429301 82,50.62 C81.6090684,51.4534778 81.4304273,52.3707311 81.48,53.29 L81.48,62.65 C81.48,63.88 81.48,63.74 80.36,63.74 L76,63.74 C74.88,63.74 74.88,63.89 74.88,62.65 L74.92,50.17 Z" id="Path" fill="#1C1322"></path>
            <path d="M80,18.47 C80,20.47 79.95,22.54 80,24.57 C80.0550307,25.5183189 80.216033,26.4574988 80.48,27.37 C80.65,27.98 80.48,28.02 79.96,28.01 C78.36,28.01 76.76,28.01 75.16,28.01 C74.07,28.01 74.04,28.01 73.87,27.01 C73.78,26.48 73.78,26.31 73.24,26.73 C70.8053496,28.5679214 67.6379911,29.1292725 64.72,28.24 C62.3752734,27.7046229 60.6941818,25.6444616 60.64,23.24 C60.46,20.32 61.49,18.4 64.05,17.44 C65.6001684,16.9354953 67.1887127,16.5575889 68.8,16.31 C69.89,16.08 71.01,16 72.1,15.79 C73.19,15.58 73.59,15.17 73.68,14.29 C73.7884295,13.4623558 73.2799387,12.6784325 72.48,12.44 C71.4544853,11.9667399 70.2846411,11.9129127 69.22,12.29 C68.4439646,12.5449161 67.8518612,13.1785045 67.65,13.97 C67.6276952,14.1457607 67.5356625,14.3051737 67.3946062,14.4123765 C67.2535498,14.5195794 67.0753156,14.5655692 66.9,14.54 C65.31,14.54 63.71,14.54 62.11,14.54 C61.48,14.54 61.39,14.28 61.47,13.72 C61.7289448,11.529568 63.1575808,9.65280761 65.2,8.82 C67.3516753,7.94010117 69.6895609,7.6134848 72,7.87 C73.3883042,7.94983895 74.7617333,8.19833223 76.09,8.61 C78.4146169,9.25973618 79.9823925,11.4289071 79.87,13.84 C79.87,15.4 79.87,16.96 79.87,18.52 L80,18.47 Z M73.75,20.31 L73.64,20.31 L73.64,19.96 C73.64,18.96 73.64,19.02 72.8,19.24 C72.18,19.4 71.54,19.47 70.93,19.65 C69.9652389,19.8769654 69.0292776,20.2124354 68.14,20.65 C67.5578774,20.9949956 67.1896779,21.6109451 67.1614236,22.2870296 C67.1331693,22.9631142 67.4486924,23.6076371 68,24 C68.8666719,24.5352897 69.915693,24.6895911 70.8997944,24.4265332 C71.8838959,24.1634753 72.7160115,23.5063316 73.2,22.61 C73.4544799,21.8593367 73.6517112,21.0904689 73.79,20.31 L73.75,20.31 Z" id="Shape" fill="#190E1E"></path>
            <path d="M124.68,89.79 C124.68,91.91 124.63,94.02 124.68,96.14 C124.768158,97.0856618 124.93541,98.0222724 125.18,98.94 C125.27,99.33 125.28,99.51 124.79,99.5 C123.15,99.5 121.51,99.5 119.87,99.5 C118.77,99.5 118.72,99.5 118.55,98.5 C118.46,97.95 118.41,97.82 117.91,98.21 C115.544941,100.002915 112.474987,100.580615 109.62,99.77 C107.828248,99.3131658 106.356485,98.0387879 105.648098,96.3307888 C104.939711,94.6227896 105.077517,92.6808486 106.02,91.09 C107.013365,89.5606561 108.630562,88.5471638 110.44,88.32 C112.44,87.9 114.37,87.66 116.33,87.32 C116.65,87.27 116.95,87.16 117.26,87.1 C118.59,86.83 118.71,84.98 117.77,84.24 C116.47,83.24 113.2,82.97 112.35,85.33 C112.22,85.69 112.12,85.95 111.65,85.94 C110.01,85.94 108.37,85.94 106.73,85.94 C106.18,85.94 106.07,85.74 106.15,85.21 C106.427259,82.7462928 108.159005,80.6910773 110.54,80 C112.434376,79.3478329 114.442705,79.0925367 116.44,79.25 C117.750829,79.3262472 119.050685,79.5339562 120.32,79.87 C122.939449,80.4221261 124.752184,82.8192014 124.57,85.49 C124.57,86.93 124.57,88.37 124.57,89.81 L124.68,89.79 Z M118.29,91.79 C118.29,91.56 118.34,91.4 118.34,91.24 C118.34,90.44 118.34,90.45 117.59,90.65 C117.09,90.79 116.59,90.88 116.08,91.02 C114.999701,91.2849675 113.937518,91.6189872 112.9,92.02 C112.087655,92.4316862 111.656012,93.340192 111.85,94.23 C112.031136,95.1178123 112.744839,95.7996175 113.64,95.94 C116.33,96.44 118.11,95.07 118.29,92.34 C118.301275,92.1535036 118.301275,91.9664964 118.29,91.78 L118.29,91.79 Z" id="Shape" fill="#190E1E"></path>
            <path d="M46.77,91.1 C46.77,92.72 46.87,94.91 46.97,97.1 C47.0210622,97.6536197 47.1317023,98.2001151 47.3,98.73 C47.49,99.47 47.51,99.48 46.72,99.48 C45.16,99.48 43.6,99.48 42.04,99.48 C40.98,99.48 40.94,99.48 40.78,98.4 C40.69,97.81 40.52,97.84 40.14,98.14 C37.8128897,99.9131024 34.7940332,100.504311 31.97,99.74 C29.3095765,99.2455326 27.4148579,96.8739409 27.52,94.17 C27.2818368,91.581111 28.9886804,89.2128654 31.52,88.62 C33.32,88.14 35.18,87.88 37.02,87.52 C37.8,87.37 38.59,87.27 39.37,87.09 C40.0266966,86.9951126 40.5318602,86.4609643 40.59,85.8 C40.7266811,85.1106435 40.4089471,84.4108242 39.8,84.06 C37.99,82.95 35.1,83.31 34.55,85.41 C34.45,85.82 34.21,85.89 33.86,85.89 C32.22,85.89 30.58,85.89 28.94,85.89 C28.36,85.89 28.28,85.64 28.36,85.15 C28.6666435,82.6063693 30.5133323,80.5169046 33,79.9 C36.112455,78.9438579 39.437714,78.9264664 42.56,79.85 C45.0979057,80.3712494 46.8869718,82.650934 46.79,85.24 C46.83,87 46.77,88.76 46.77,91.1 Z M40.55,91.55 L40.55,91.19 C40.55,90.43 40.55,90.45 39.81,90.64 C39.07,90.83 38.41,90.93 37.72,91.12 C36.8663241,91.3052508 36.0299703,91.5628478 35.22,91.89 C34.3160603,92.3060279 33.8307853,93.3016783 34.06,94.27 C34.2754173,95.1872211 35.0605016,95.8589942 36,95.93 C38.59,96.26 40,95.19 40.45,92.62 C40.52,92.27 40.52,91.91 40.55,91.55 L40.55,91.55 Z" id="Shape" fill="#180D1E"></path>
            <path d="M159.64,89.53 C159.64,86.53 159.64,83.62 159.64,80.66 C159.64,80.06 159.76,79.8 160.42,79.82 C162.02,79.87 163.62,79.82 165.22,79.82 C165.81,79.82 166.11,79.92 166.04,80.6 C166.010127,81.0761986 166.010127,81.5538014 166.04,82.03 C166.41,81.71 166.77,81.37 167.14,81.03 C169.713372,78.9237858 173.297137,78.5614711 176.24,80.11 C178.44,81.32 179.14,83.44 179.24,85.77 C179.31,88.85 179.24,91.93 179.24,95.01 C179.24,96.25 179.24,97.49 179.24,98.73 C179.24,99.31 179.08,99.48 178.5,99.47 C176.86,99.47 175.22,99.42 173.58,99.47 C172.89,99.47 172.73,99.25 172.73,98.59 C172.73,95.2 172.73,91.8 172.73,88.4 C172.736616,87.9589219 172.713229,87.5179045 172.66,87.08 C172.600081,85.8787746 171.730008,84.8726236 170.55,84.64 C169.200294,84.3304877 167.797434,84.8679213 167,86 C166.454943,86.8430851 166.192273,87.8377291 166.25,88.84 L166.25,94.6 C166.25,96 166.25,97.4 166.25,98.79 C166.25,99.39 166.05,99.55 165.48,99.54 C163.8,99.54 162.12,99.49 160.48,99.54 C159.8,99.54 159.71,99.25 159.71,98.68 C159.65,95.61 159.64,92.57 159.64,89.53 Z" id="Path" fill="#1B1221"></path>
            <path d="M110.39,55.52 L104,55.52 C103.13,55.52 103.13,55.52 103.29,56.38 C103.453098,58.0270936 104.668795,59.3765167 106.29,59.71 C107.978148,60.2678815 109.831914,59.6445272 110.84,58.18 C111.03128,57.8796701 111.375836,57.7131993 111.73,57.75 C113.25,57.75 114.73,57.75 116.28,57.75 C117.28,57.75 117.28,57.75 116.89,58.75 C116.234937,60.5787019 114.898522,62.083513 113.16,62.95 C109.551362,64.8351324 105.248638,64.8351324 101.64,62.95 C98.52,61.4 97.08,58.59 96.7,55.22 C95.9297957,49.7819548 99.5953778,44.7075526 105,43.73 C107.124066,43.2563587 109.340897,43.423404 111.37,44.21 C114.76,45.55 116.53,48.21 117.24,51.66 C117.45,52.66 117.42,53.72 117.53,54.75 C117.6,55.41 117.3,55.54 116.71,55.53 C114.63,55.5 112.51,55.52 110.39,55.52 Z M107.11,51.84 C108.23,51.84 109.35,51.84 110.47,51.84 C110.94,51.84 111.09,51.73 110.98,51.22 C110.706985,49.3723494 109.156347,47.9813982 107.29,47.91 C105.327715,47.9373995 103.655694,49.3418974 103.29,51.27 C103.19,51.72 103.29,51.84 103.72,51.83 L107.11,51.84 Z" id="Shape" fill="#1B1120"></path>
            <path d="M51.33,19.81 C49.21,19.81 47.09,19.81 44.97,19.81 C44.37,19.81 44.21,19.97 44.31,20.56 C44.4540073,22.1127419 45.5136179,23.4283923 47,23.9 C48.6504804,24.5959282 50.5624019,24.1097772 51.68,22.71 C52.0389719,22.2043566 52.6435557,21.9326765 53.26,22 C54.62,22 55.98,22 57.34,22 C58.34,22 58.34,22 57.97,23 C56.9760563,25.586631 54.7540816,27.5045855 52.05,28.11 C49.4227218,28.8646503 46.6250321,28.7772225 44.05,27.86 C40.6671476,26.7286942 38.2557593,23.7271606 37.88,20.18 C37.3428406,17.4410192 37.9302859,14.6010996 39.51,12.3 C41.2480835,9.69637397 44.1051211,8.05690808 47.23,7.87 C49.1038729,7.64222639 51.0048315,7.90050881 52.75,8.62 C55.5928126,9.85199747 57.6386026,12.4148553 58.21,15.46 C58.3989129,16.6322218 58.5224373,17.8140495 58.58,19 C58.67,19.72 58.33,19.85 57.69,19.84 C55.57,19.79 53.45,19.81 51.33,19.81 Z M48.11,16.08 C49.19,16.08 50.27,16.08 51.34,16.08 C51.95,16.08 52.13,15.92 51.99,15.33 C51.6197148,13.5500517 50.0956396,12.2437015 48.28,12.15 C46.3832023,12.2343054 44.7775486,13.5778115 44.36,15.43 C44.27,15.88 44.36,16.1 44.88,16.08 C46,16.06 47,16.08 48.11,16.08 L48.11,16.08 Z" id="Shape" fill="#190F1F"></path>
            <path d="M83,18.2 L83,9.32 C83,8.32 82.86,8.32 83.93,8.32 C85.49,8.32 87.05,8.32 88.61,8.32 C89.14,8.32 89.33,8.49 89.27,9 C89.2550456,9.1195341 89.2550456,9.2404659 89.27,9.36 C89.27,9.78 89.27,10.2 89.35,10.62 L90.29,9.78 C92.881488,7.56609032 96.5502506,7.12820575 99.59,8.67 C101.076926,9.50712588 102.095117,10.982765 102.35,12.67 C102.516596,13.4491739 102.603708,14.24324 102.61,15.04 C102.61,19.04 102.61,23.12 102.61,27.16 C102.61,27.84 102.41,28.03 101.74,28.02 C100.18,27.97 98.62,28.02 97.06,28.02 C95.99,28.02 96.06,28.1 96.06,27.02 C96.06,23.79 96.06,20.55 96.06,17.31 C96.0554991,16.5917504 95.9852053,15.8754234 95.85,15.17 C95.7003077,14.236127 95.0009408,13.4853942 94.08,13.27 C93.1455414,12.9218707 92.1042503,13.0108449 91.242399,13.5124617 C90.3805478,14.0140784 89.788859,14.8755353 89.63,15.86 C89.518512,16.402964 89.4615624,16.9557103 89.46,17.51 C89.46,20.71 89.46,23.91 89.46,27.11 C89.46,27.76 89.32,28.01 88.62,27.99 C86.98,27.9366667 85.34,27.9366667 83.7,27.99 C83.04,27.99 82.92,27.76 82.92,27.16 C83,24.19 83,21.19 83,18.2 Z" id="Path" fill="#16091C"></path>
            <path d="M47.93,64.3 C45.1502532,64.3880615 42.4609741,63.3063676 40.5163917,61.3180653 C38.5718092,59.329763 37.5501659,56.6171022 37.7,53.84 C37.7,47.2 42.76,43.28 48.56,43.51 C54.36,43.74 58.56,48.15 58.44,54.22 C58.4656492,56.976801 57.3520348,59.6218923 55.3623197,61.5302014 C53.3726045,63.4385104 50.6833265,64.4407223 47.93,64.3 Z M52.07,53.86 C51.8579019,52.734371 51.5671899,51.6249875 51.2,50.54 C50.6568736,49.2774835 49.414385,48.4594116 48.04,48.4594116 C46.665615,48.4594116 45.4231264,49.2774835 44.88,50.54 C43.9446915,52.6475577 43.9446915,55.0524423 44.88,57.16 C45.3582015,58.4635992 46.6117698,59.3194006 48,59.29 C49.3991911,59.3655974 50.6999402,58.5700322 51.27,57.29 C51.7467942,56.20608 52.0180636,55.0430122 52.07,53.86 Z" id="Shape" fill="#190E1E"></path>
            <path d="M134.62,49.89 L133.06,49.89 C132.28,49.89 131.44,50.09 131.34,48.89 C131.34,48.65 130.97,48.35 130.71,48.22 C129.486919,47.5797773 128.036977,47.5391937 126.78,48.11 C126.389598,48.248889 126.111711,48.5971298 126.062926,49.0086201 C126.014141,49.4201104 126.202896,49.8236747 126.55,50.05 C127.198594,50.5135342 127.927616,50.852614 128.7,51.05 C130.28,51.44 131.91,51.66 133.49,52.05 C134.343436,52.2467354 135.157991,52.5847247 135.9,53.05 C137.416995,54.1389213 138.308218,55.8987433 138.288312,57.7659948 C138.268405,59.6332463 137.339866,61.3736678 135.8,62.43 C134.464858,63.388417 132.904122,63.9844598 131.27,64.16 C128.737303,64.5768212 126.140945,64.3638924 123.71,63.54 C121.359695,62.8002464 119.641449,60.7787814 119.29,58.34 C119.11,57.34 119.16,57.27 120.2,57.27 C121.72,57.27 123.24,57.27 124.76,57.27 C125.05,57.27 125.34,57.2 125.47,57.66 C125.754859,59.224839 127.21149,60.2953753 128.79,60.1 C129.542462,60.0662987 130.27606,59.8537611 130.93,59.48 C131.480341,59.2352309 131.825681,58.6795007 131.801432,58.0776713 C131.777182,57.4758418 131.38825,56.9496977 130.82,56.75 C129.509334,56.2999907 128.173778,55.9260351 126.82,55.63 C125.350204,55.2820382 123.901231,54.8513525 122.48,54.34 C118.93,52.87 118.87,48.34 120.77,46.15 C121.606923,45.2271275 122.688994,44.5612376 123.89,44.23 C126.883037,43.302334 130.083193,43.2779849 133.09,44.16 C135.556017,44.7069111 137.374685,46.8016268 137.57,49.32 C137.62,49.84 137.48,49.95 137.03,49.94 C136.22,49.88 135.42,49.89 134.62,49.89 Z" id="Path" fill="#180D1E"></path>
            <path d="M62.06,54 C62.06,52.53 62.06,51 62.06,49.57 C62.06,48.29 62.21,48.37 60.81,48.37 C60.37,48.37 59.93,48.37 59.49,48.37 C59.05,48.37 58.76,48.27 58.78,47.71 C58.78,46.71 58.78,45.71 58.78,44.71 C58.78,44.21 58.98,44.11 59.42,44.12 C60.1,44.12 60.78,44.12 61.42,44.12 C61.89,44.12 62.04,43.95 62.03,43.49 C62.03,41.97 62.03,40.49 62.03,38.93 C62.03,38.31 62.2,38.1 62.84,38.12 C64.52,38.12 66.2,38.12 67.84,38.12 C68.37,38.12 68.53,38.29 68.52,38.81 C68.52,40.33 68.52,41.81 68.52,43.36 C68.52,43.93 68.65,44.15 69.25,44.11 C70.08,44.06 70.93,44.11 71.76,44.11 C72.25,44.11 72.49,44.19 72.47,44.76 C72.42,45.76 72.47,46.68 72.47,47.63 C72.47,48.23 72.25,48.4 71.69,48.37 C70.85,48.37 70.01,48.37 69.17,48.37 C68.75,48.37 68.52,48.44 68.52,48.96 C68.52,51.8 68.52,54.64 68.52,57.47 C68.4882641,57.8918668 68.644956,58.3061333 68.9479385,58.6013965 C69.250921,58.8966597 69.6690925,59.0426104 70.09,59 C70.7261859,59.03499 71.3638141,59.03499 72,59 C72.35,59 72.5,59.11 72.5,59.48 C72.5,60.76 72.5,62.04 72.5,63.31 C72.4286654,63.5406954 72.2434662,63.7183354 72.01,63.78 C70.2211311,63.8699923 68.4288689,63.8699923 66.64,63.78 C63.75,63.54 62.34,62.03 62.18,59.14 C62.09,57.43 62.18,55.7 62.18,53.98 L62.06,54 Z" id="Path" fill="#180D1E"></path>
            <path d="M35.3,50.19 C35.3,54.31 35.3,58.4266667 35.3,62.54 C35.3,63.95 35.38,63.72 34.07,63.73 L29.74,63.73 C28.8,63.73 28.74,63.73 28.74,62.73 C28.74,58.21 28.74,53.73 28.74,49.18 C28.74,45.34 28.74,41.51 28.74,37.67 C28.74,36.67 28.74,36.67 29.68,36.67 C31.24,36.67 32.79,36.67 34.35,36.67 C35.23,36.67 35.24,36.67 35.24,37.6 C35.28,41.8 35.3,45.9966667 35.3,50.19 Z" id="Path" fill="#170A1D"></path>
            <path d="M35.3,14.57 C35.3,18.76 35.3,22.96 35.3,27.15 C35.3,27.82 35.13,28.04 34.45,28.02 C32.85,27.97 31.25,28.02 29.66,28.02 C28.66,28.02 28.77,28.02 28.77,27.09 C28.77,23.09 28.77,19.18 28.77,15.22 C28.77,10.83 28.77,6.44 28.77,2.05 C28.77,0.99 28.77,0.99 29.77,0.98 L34.2,0.98 C35.2,0.98 35.2,0.98 35.2,1.98 C35.2,5.3 35.2,8.61 35.2,11.98 L35.3,14.57 Z" id="Path" fill="#170B1D"></path>
            <path d="M127.88,89.56 C127.88,86.56 127.88,83.65 127.88,80.69 C127.88,80.05 128.02,79.8 128.71,79.82 C130.35,79.87 131.99,79.82 133.63,79.82 C134.17,79.82 134.39,79.91 134.38,80.52 C134.38,86.5866667 134.38,92.6566667 134.38,98.73 C134.38,99.27 134.28,99.51 133.67,99.5 C132.03,99.45 130.39,99.5 128.75,99.5 C127.9,99.5 127.89,99.5 127.89,98.55 L127.88,89.56 Z" id="Path" fill="#130319"></path>
            <path d="M164.31,116 C165.11,117.19 165.95,118.36 166.7,119.58 C166.993802,120.151257 167.599072,120.493195 168.24,120.45 C169.44,120.45 170.63,120.58 171.83,120.66 C172.27,120.66 172.56,120.74 172.46,120.07 C172.152734,118.93887 172.729755,117.754906 173.81,117.3 C175.019833,116.772013 176.431602,117.073673 177.32,118.05 C178.176034,118.881378 178.398203,120.16996 177.87,121.24 C177.415456,122.123168 176.437552,122.606033 175.46,122.43 C174.639245,122.284044 173.832836,122.066548 173.05,121.78 C171.700938,121.333529 170.220651,121.54447 169.05,122.35 C168.55,122.66 168.54,122.94 168.83,123.42 C169.629932,124.781943 170.861738,125.837776 172.33,126.42 C173.04,126.7 173.77,126.9 174.46,127.22 C175.3216,127.833295 175.71738,128.913278 175.456091,129.938076 C175.194802,130.962875 174.330236,131.721512 173.28017,131.847397 C172.230105,131.973282 171.21072,131.440499 170.714604,130.5065 C170.218488,129.572501 170.347779,128.429572 171.04,127.63 C171.44,127.08 171.29,126.96 170.8,126.72 C169.358668,126.108183 168.113284,125.111877 167.2,123.84 C166.946475,123.480716 166.516745,123.288872 166.08,123.34 C163.57,123.2 161.08,123.06 158.56,122.87 C156.743371,122.768349 155.012313,122.064666 153.64,120.87 C153.494239,120.70644 153.369906,120.524979 153.27,120.33 C153.455648,120.303419 153.642579,120.286728 153.83,120.28 L163.18,120.21 C163.558908,120.18367 163.936122,120.136935 164.31,120.07 C164.13,119.73 163.97,119.37 163.77,119.07 C163.17,118.07 162.55,117.07 161.94,116.13 L164.31,116 Z M175.55,121.59 C175.992002,121.603443 176.421099,121.439974 176.74212,121.135849 C177.063141,120.831724 177.249549,120.412083 177.26,119.97 C177.123327,118.823367 176.173836,117.945935 175.02,117.9 C174.562008,117.910457 174.127109,118.103187 173.811733,118.435459 C173.496357,118.76773 173.326563,119.212085 173.34,119.67 C173.495939,120.766458 174.442625,121.576067 175.55,121.56 L175.55,121.59 Z M175.120034,129.59 C174.976671,128.429674 173.978894,127.565798 172.81,127.59 C172.409725,127.612773 172.035814,127.796964 171.773812,128.100434 C171.51181,128.403904 171.384137,128.800685 171.42,129.2 C171.473975,130.328713 172.431144,131.2009 173.56,131.15 C174.4303,131.133595 175.125629,130.420436 175.120034,129.55 L175.120034,129.59 Z" id="Shape" fill="#E4331E"></path>
            <path d="M131.24,72.43 C132.08,72.43 132.91,72.43 133.75,72.43 C134.22,72.43 134.38,72.57 134.37,73.04 C134.37,74.31 134.37,75.59 134.37,76.86 C134.37,77.35 134.2,77.46 133.75,77.46 C132,77.46 130.24,77.46 128.49,77.46 C128.04,77.46 127.86,77.35 127.87,76.86 C127.87,75.59 127.87,74.31 127.87,73.04 C127.87,72.57 128.02,72.41 128.49,72.43 C129.41,72.45 130.32,72.43 131.24,72.43 Z" id="Path" fill="#16091C"></path>
            <path d="M174.75,115.12 C175.025544,115.084745 175.304456,115.084745 175.58,115.12 C175.77,115.17 175.91,115.37 176.07,115.5 C175.9,115.67 175.75,115.96 175.56,115.99 C175.049056,116.060036 174.530944,116.060036 174.02,115.99 C173.84,115.99 173.69,115.66 173.53,115.48 C173.676321,115.329548 173.849236,115.207491 174.04,115.12 C174.275369,115.084947 174.514631,115.084947 174.75,115.12 Z" id="Path" fill="#464352"></path>
            <path d="M17.37,116 C17.11,115.85 16.3,116.43 16.32,115.54 C16.34,114.65 17.06,115.23 17.46,115.14 C17.8098885,115.070224 18.1701115,115.070224 18.52,115.14 C18.6879965,115.204448 18.8096003,115.352652 18.84,115.53 C18.84,115.67 18.69,115.94 18.57,115.96 C18.1716627,116.00471 17.7704305,116.018084 17.37,116 Z" id="Path" fill="#454150"></path>
            <path d="M164.31,116 L161.94,116.11 C161.66,115.2 161.66,115.2 162.38,115.11 C162.773079,115.130001 163.166921,115.130001 163.56,115.11 C164.26,115 164.36,115.43 164.31,116 Z" id="Path" fill="#48322A"></path>
            <path d="M155.09,116 C154.818158,116.040386 154.541842,116.040386 154.27,116 C154.07187,115.923304 153.927917,115.749046 153.89,115.54 C153.89,115.4 154.15,115.16 154.32,115.14 C154.872203,115.089978 155.427797,115.089978 155.98,115.14 C156.178027,115.198705 156.337152,115.346728 156.41,115.54 C156.5,115.89 156.26,116.03 155.93,116.03 L155.09,116.03 L155.09,116 Z" id="Path" fill="#454150"></path>
            <path d="M29.37,116 C29.0947949,116.040217 28.8152051,116.040217 28.54,116 C28.3400835,115.934156 28.1862552,115.772824 28.13,115.57 C28.1705185,115.363426 28.3197842,115.195024 28.52,115.13 C29.0352026,115.074993 29.5547974,115.074993 30.07,115.13 C30.27,115.13 30.44,115.4 30.62,115.55 C30.44,115.71 30.29,115.93 30.08,116 C29.8450654,116.040494 29.6049346,116.040494 29.37,116 Z" id="Path" fill="#464352"></path>
            <path d="M143.22,116 C142.92,115.85 142.11,116.4 142.13,115.53 C142.15,114.66 142.87,115.22 143.28,115.13 C143.588884,115.055321 143.911116,115.055321 144.22,115.13 C144.412702,115.214059 144.553828,115.384895 144.6,115.59 C144.6,115.7 144.41,115.95 144.28,115.98 C143.927914,116.017367 143.573245,116.024058 143.22,116 Z" id="Path" fill="#464352"></path>
            <path d="M9.77,115.12 L10.48,115.12 C10.81,115.12 11.07,115.23 10.97,115.59 C10.905415,115.792787 10.7442505,115.950204 10.54,116.01 C9.98779719,116.060022 9.43220281,116.060022 8.88,116.01 C8.71,116.01 8.57,115.74 8.42,115.6 C8.59,115.44 8.74,115.21 8.94,115.14 C9.21422113,115.092998 9.49383327,115.08626 9.77,115.12 L9.77,115.12 Z" id="Path" fill="#454150"></path>
            <path d="M41.17,115.14 C41.4859489,115.109848 41.8040511,115.109848 42.12,115.14 C42.2778803,115.215964 42.3868926,115.366326 42.41,115.54 C42.41,115.69 42.24,115.96 42.14,115.97 C41.4737749,116.004316 40.8062251,116.004316 40.14,115.97 C40.04,115.97 39.88,115.66 39.9,115.51 C39.9439495,115.337364 40.0716871,115.198356 40.24,115.14 C40.5724958,115.106583 40.9075042,115.106583 41.24,115.14 L41.17,115.14 Z" id="Path" fill="#454150"></path>
            <path d="M131.57,116 C131.294456,116.035255 131.015544,116.035255 130.74,116 C130.54048,115.935892 130.384108,115.77952 130.32,115.58 C130.351096,115.378798 130.488939,115.210322 130.68,115.14 C131.27228,115.09 131.86772,115.09 132.46,115.14 C132.656463,115.210884 132.798426,115.383541 132.83,115.59 C132.83,115.75 132.58,115.95 132.4,116 C132.124456,116.035255 131.845544,116.035255 131.57,116 L131.57,116 Z" id="Path" fill="#454150"></path>
            <path d="M49,115.13 C49.3324958,115.096583 49.6675042,115.096583 50,115.13 C50.14,115.13 50.37,115.39 50.35,115.49 C50.33,115.59 50.14,115.96 50,115.98 C49.4043806,116.029996 48.8056194,116.029996 48.21,115.98 C48.0124348,115.91381 47.8667273,115.745096 47.83,115.54 C47.83,115.4 48.06,115.17 48.22,115.12 C48.4955573,115.084961 48.7744427,115.084961 49.05,115.12 L49,115.13 Z" id="Path" fill="#454150"></path>
            <path d="M123.55,116 C123.24,115.84 122.43,116.39 122.45,115.52 C122.47,114.65 123.2,115.21 123.6,115.12 C123.909962,115.055 124.230038,115.055 124.54,115.12 C124.71,115.12 124.96,115.38 124.96,115.52 C124.925846,115.727599 124.785453,115.902142 124.59,115.98 C124.244972,116.022807 123.896419,116.02951 123.55,116 L123.55,116 Z" id="Path" fill="#454150"></path>
            <path d="M111.65,116 C111.38,115.9 110.65,116.32 110.65,115.53 C110.65,114.74 111.31,115.18 111.65,115.12 C112.004139,115.059947 112.365861,115.059947 112.72,115.12 C112.906931,115.20901 113.043126,115.378335 113.09,115.58 C113.09,115.69 112.9,115.94 112.76,115.97 C112.39097,116.002837 112.020265,116.012856 111.65,116 L111.65,116 Z" id="Path" fill="#464352"></path>
            <path d="M60.8,115.12 C61.0755436,115.084745 61.3544564,115.084745 61.63,115.12 C61.8,115.17 62.04,115.41 62.03,115.55 C61.9857287,115.758047 61.8328993,115.92616 61.63,115.99 C61.1184201,116.050003 60.6015799,116.050003 60.09,115.99 C59.89,115.99 59.72,115.7 59.53,115.55 C59.6924166,115.377582 59.8814957,115.232397 60.09,115.12 C60.3249346,115.079506 60.5650654,115.079506 60.8,115.12 Z" id="Path" fill="#464352"></path>
            <path d="M100.13,116 C99.8544564,116.035255 99.5755436,116.035255 99.3,116 C99.12,116 98.89,115.74 98.88,115.58 C98.9110961,115.378798 99.0489394,115.210322 99.24,115.14 C99.8322799,115.09 100.42772,115.09 101.02,115.14 C101.17,115.14 101.36,115.42 101.4,115.6 C101.44,115.78 101.21,115.96 101.07,115.98 C100.757388,116.010062 100.442612,116.010062 100.13,115.98 L100.13,116 Z" id="Path" fill="#454150"></path>
            <path d="M92.24,116 C91.9647949,116.040217 91.6852051,116.040217 91.41,116 C91.24,116 91.01,115.72 91.01,115.56 C91.01,115.4 91.25,115.15 91.41,115.13 C91.9218612,115.075021 92.4381388,115.075021 92.95,115.13 C93.15,115.13 93.32,115.41 93.51,115.56 C93.3453224,115.735479 93.1568144,115.886958 92.95,116.01 C92.7141466,116.041889 92.4748617,116.038519 92.24,116 Z" id="Path" fill="#464352"></path>
            <path d="M80.45,115.12 C80.7255573,115.084961 81.0044427,115.084961 81.28,115.12 C81.46,115.17 81.71,115.37 81.71,115.52 C81.6818601,115.730232 81.5393138,115.907451 81.34,115.98 C80.7880337,116.035006 80.2319663,116.035006 79.68,115.98 C79.51,115.98 79.37,115.72 79.21,115.57 C79.39,115.41 79.53,115.19 79.74,115.11 C79.9755046,115.072811 80.2156362,115.076193 80.45,115.12 Z" id="Path" fill="#464352"></path>
            <path d="M37.26,116 C36.9479479,116.040073 36.6320521,116.040073 36.32,116 C36.17,116 36.02,115.69 35.99,115.51 C35.96,115.33 36.2,115.17 36.33,115.16 C36.8792742,115.12004 37.4307258,115.12004 37.98,115.16 C38.15,115.16 38.29,115.4 38.45,115.53 C38.29,115.7 38.16,115.94 37.96,116.03 C37.728481,116.071151 37.491519,116.071151 37.26,116.03 L37.26,116 Z" id="Path" fill="#413D4C"></path>
            <path d="M72.68,115.13 C72.9525027,115.099864 73.2274973,115.099864 73.5,115.13 C73.64,115.13 73.86,115.38 73.85,115.48 C73.84,115.58 73.65,115.96 73.52,115.97 C72.9312829,116.025025 72.3387171,116.025025 71.75,115.97 C71.62,115.97 71.42,115.65 71.42,115.49 C71.42,115.33 71.68,115.15 71.86,115.11 C72.1325027,115.079864 72.4074973,115.079864 72.68,115.11 L72.68,115.13 Z" id="Path" fill="#413D4C"></path>
            <path d="M84.34,115.13 C84.6158455,115.099854 84.8941545,115.099854 85.17,115.13 C85.34,115.18 85.48,115.38 85.63,115.51 C85.47,115.68 85.32,115.97 85.14,115.99 C84.6324018,116.059998 84.1175982,116.059998 83.61,115.99 C83.44,115.99 83.3,115.66 83.15,115.48 C83.2921435,115.336202 83.4578746,115.217823 83.64,115.13 C83.8720135,115.094902 84.1079865,115.094902 84.34,115.13 Z" id="Path" fill="#413D4C"></path>
            <path d="M88.33,115.13 C88.6055505,115.094854 88.8844495,115.094854 89.16,115.13 C89.3474284,115.205332 89.488291,115.364729 89.54,115.56 C89.4922315,115.762902 89.3457,115.928219 89.15,116 C88.6414846,116.055033 88.1285154,116.055033 87.62,116 C87.43,116 87.27,115.71 87.09,115.55 C87.3610546,115.146002 87.8670221,114.970545 88.33,115.12 L88.33,115.13 Z" id="Path" fill="#413D4C"></path>
            <path d="M68.62,116 C68.3478049,116.035277 68.0721951,116.035277 67.8,116 C67.6107622,115.916341 67.4757276,115.743797 67.44,115.54 C67.5032112,115.346164 67.6620189,115.198699 67.86,115.15 C68.368774,115.099989 68.881226,115.099989 69.39,115.15 C69.56,115.15 69.72,115.37 69.89,115.49 C69.74,115.67 69.63,115.94 69.44,116.01 C69.1690164,116.060686 68.8909836,116.060686 68.62,116.01 L68.62,116 Z" id="Path" fill="#413D4C"></path>
            <path d="M108,116 C107.667755,116.038089 107.332245,116.038089 107,116 C106.89,116 106.75,115.72 106.75,115.56 C106.75,115.4 106.92,115.17 107.03,115.16 C107.625818,115.114985 108.224182,115.114985 108.82,115.16 C109.012178,115.225642 109.153758,115.390181 109.19,115.59 C109.135714,115.790514 108.986072,115.95138 108.79,116.02 C108.514443,116.055039 108.235557,116.055039 107.96,116.02 L108,116 Z" id="Path" fill="#403C4B"></path>
            <path d="M56.94,115.13 C57.2127586,115.104933 57.4872414,115.104933 57.76,115.13 C57.9,115.13 58.12,115.38 58.1,115.48 C58.08,115.58 57.91,115.97 57.79,115.99 C57.1949748,116.049605 56.595654,116.052953 56,116 C55.86,116 55.65,115.69 55.66,115.53 C55.67,115.37 55.92,115.2 56.1,115.15 C56.378353,115.111717 56.6601404,115.105008 56.94,115.13 L56.94,115.13 Z" id="Path" fill="#413D4C"></path>
            <path d="M115.9,115.13 C116.17585,115.099933 116.45415,115.099933 116.73,115.13 C116.87,115.13 117.08,115.37 117.07,115.47 C117.06,115.57 116.88,115.96 116.76,115.97 C116.164598,116.024943 115.565402,116.024943 114.97,115.97 C114.83,115.97 114.62,115.65 114.63,115.49 C114.64,115.33 114.89,115.16 115.06,115.11 C115.339192,115.079913 115.620808,115.079913 115.9,115.11 L115.9,115.13 Z" id="Path" fill="#403C4B"></path>
            <path d="M119.76,116 C119.447385,116.030001 119.132615,116.030001 118.82,116 C118.7,116 118.55,115.73 118.55,115.58 C118.55,115.43 118.73,115.19 118.84,115.18 C119.466028,115.139995 120.093972,115.139995 120.72,115.18 C120.82,115.18 120.99,115.45 120.98,115.59 C120.97,115.73 120.83,115.99 120.7,116.01 C120.387394,116.040186 120.072606,116.040186 119.76,116.01 L119.76,116 Z" id="Path" fill="#413D4C"></path>
            <path d="M53,115.14 C53.3126123,115.109938 53.6273877,115.109938 53.94,115.14 C54.094352,115.223115 54.1987515,115.375985 54.22,115.55 C54.22,115.69 54.05,115.96 53.94,115.96 C53.2952093,116.021237 52.6467669,116.034607 52,116 C51.8415364,115.918172 51.7386547,115.758134 51.73,115.58 C51.7879315,115.384866 51.9314304,115.226649 52.12,115.15 C52.3922023,115.114834 52.6677977,115.114834 52.94,115.15 L53,115.14 Z" id="Path" fill="#413D4C"></path>
            <path d="M135.56,115.13 C135.83585,115.099933 136.11415,115.099933 136.39,115.13 C136.53,115.13 136.74,115.38 136.73,115.48 C136.72,115.58 136.53,115.96 136.4,115.97 C135.811283,116.025025 135.218717,116.025025 134.63,115.97 C134.5,115.97 134.33,115.66 134.3,115.48 C134.27,115.3 134.49,115.14 134.62,115.11 C134.932835,115.085 135.247165,115.085 135.56,115.11 L135.56,115.13 Z" id="Path" fill="#413D4C"></path>
            <path d="M139.46,115.13 C139.739439,115.104929 140.020561,115.104929 140.3,115.13 C140.44,115.13 140.67,115.37 140.66,115.46 C140.65,115.55 140.48,115.97 140.35,115.98 C139.754601,116.035 139.155399,116.035 138.56,115.98 C138.43,115.98 138.21,115.67 138.22,115.52 C138.23,115.37 138.46,115.17 138.63,115.12 C138.906209,115.093175 139.184518,115.096528 139.46,115.13 L139.46,115.13 Z" id="Path" fill="#403C4B"></path>
            <path d="M33.32,116 C32.9881615,116.044644 32.6518385,116.044644 32.32,116 C32.17,116 32.03,115.67 32.01,115.48 C31.99,115.29 32.24,115.16 32.37,115.15 C32.9290959,115.104999 33.4909041,115.104999 34.05,115.15 C34.2432875,115.199462 34.395661,115.348026 34.45,115.54 C34.421576,115.743894 34.2889298,115.91823 34.1,116 C33.8247949,116.040217 33.5452051,116.040217 33.27,116 L33.32,116 Z" id="Path" fill="#403C4B"></path>
            <path d="M147.36,115.13 C147.635854,115.100012 147.914146,115.100012 148.19,115.13 C148.32,115.13 148.53,115.39 148.51,115.49 C148.49,115.59 148.31,115.96 148.18,115.98 C147.62495,116.039996 147.06505,116.039996 146.51,115.98 C146.33,115.98 146.19,115.65 146.04,115.48 C146.2,115.35 146.34,115.16 146.52,115.12 C146.799192,115.089913 147.080808,115.089913 147.36,115.12 L147.36,115.13 Z" id="Path" fill="#403C4B"></path>
            <path d="M151.28,115.13 C151.512352,115.099738 151.747648,115.099738 151.98,115.13 C152.16,115.18 152.29,115.38 152.45,115.51 C152.29,115.68 152.14,115.97 151.97,115.99 C151.462402,116.059998 150.947598,116.059998 150.44,115.99 C150.26,115.99 150.12,115.67 149.97,115.49 C150.13,115.37 150.28,115.17 150.46,115.13 C150.732503,115.099864 151.007497,115.099864 151.28,115.13 L151.28,115.13 Z" id="Path" fill="#413D4C"></path>
            <path d="M25.42,116 C25.0877547,116.038089 24.7522453,116.038089 24.42,116 C24.31,116 24.17,115.72 24.17,115.56 C24.17,115.4 24.34,115.17 24.45,115.16 C25.0458176,115.114985 25.6441824,115.114985 26.24,115.16 C26.4321778,115.225642 26.573758,115.390181 26.61,115.59 C26.555714,115.790514 26.4060719,115.95138 26.21,116.02 C25.9344427,116.055039 25.6555573,116.055039 25.38,116.02 L25.42,116 Z" id="Path" fill="#403C4B"></path>
            <path d="M21.46,115.13 C21.7324982,115.099783 22.0075018,115.099783 22.28,115.13 C22.46,115.18 22.6,115.38 22.75,115.51 C22.59,115.68 22.44,115.97 22.26,115.99 C21.7524018,116.059998 21.2375982,116.059998 20.73,115.99 C20.56,115.99 20.42,115.66 20.27,115.48 C20.4121435,115.336202 20.5778746,115.217823 20.76,115.13 C20.9920135,115.094902 21.2279865,115.094902 21.46,115.13 Z" id="Path" fill="#413D4C"></path>
            <path d="M167,116 C166.727805,116.035277 166.452195,116.035277 166.18,116 C165.985335,115.926709 165.839392,115.762056 165.79,115.56 C165.835051,115.363465 165.97894,115.204431 166.17,115.14 C166.678233,115.079954 167.191767,115.079954 167.7,115.14 C167.9,115.14 168.06,115.41 168.24,115.55 C168.088423,115.727266 167.909502,115.87918 167.71,116 C167.475065,116.040494 167.234935,116.040494 167,116 Z" id="Path" fill="#413D4C"></path>
            <path d="M170.75,116 C170.515065,116.040494 170.274935,116.040494 170.04,116 C169.848157,115.925492 169.705789,115.760645 169.66,115.56 C169.700567,115.363302 169.846945,115.205368 170.04,115.15 C170.595543,115.099973 171.154457,115.099973 171.71,115.15 C171.903348,115.210903 172.048687,115.371541 172.09,115.57 C172.042231,115.772902 171.8957,115.938219 171.7,116.01 C171.38431,116.04517 171.06569,116.04517 170.75,116.01 L170.75,116 Z" id="Path" fill="#403C4B"></path>
            <path d="M104.12,115.13 C104.39585,115.099933 104.67415,115.099933 104.95,115.13 C105.09,115.13 105.3,115.38 105.29,115.48 C105.28,115.58 105.09,115.96 104.96,115.97 C104.371283,116.025025 103.778717,116.025025 103.19,115.97 C103.06,115.97 102.89,115.66 102.86,115.48 C102.83,115.3 103.05,115.14 103.18,115.11 C103.492835,115.085 103.807165,115.085 104.12,115.11 L104.12,115.13 Z" id="Path" fill="#413D4C"></path>
            <path d="M5.66,116 C5.42848102,116.041151 5.19151898,116.041151 4.96,116 C4.76582445,115.928505 4.61729027,115.76883 4.56,115.57 C4.60322639,115.37252 4.74781708,115.21271 4.94,115.15 C5.45,115.09 5.94,115.15 6.47,115.15 C6.79,115.15 7.02,115.15 7.01,115.59 C7,116.03 6.83,116.08 6.49,116.06 L5.66,116.06 L5.66,116 Z" id="Path" fill="#413D4C"></path>
            <path d="M1.72,116 C1.48503229,116.040104 1.24496771,116.040104 1.01,116 C0.818742116,115.919287 0.677540712,115.752074 0.63,115.55 C0.63,115.41 0.87,115.15 1.02,115.14 C1.5755451,115.090026 2.1344549,115.090026 2.69,115.14 C2.88067665,115.202081 3.02245417,115.363018 3.06,115.56 C3.01998177,115.761291 2.87484154,115.925529 2.68,115.99 C2.36132785,116.028419 2.03940331,116.031772 1.72,116 L1.72,116 Z" id="Path" fill="#403C4B"></path>
            <path d="M96.09,116 C95.8144564,116.035255 95.5355436,116.035255 95.26,116 C95.107505,115.905159 95.0134085,115.739549 95.01,115.56 C95.01,115.42 95.18,115.17 95.3,115.16 C95.8959967,115.120014 96.4940033,115.120014 97.09,115.16 C97.2,115.16 97.41,115.43 97.39,115.53 C97.3517073,115.734602 97.223096,115.910984 97.04,116.01 C96.7078064,116.048983 96.3721936,116.048983 96.04,116.01 L96.09,116 Z" id="Path" fill="#403C4B"></path>
            <path d="M64.83,115.13 C65.0653578,115.094799 65.3046422,115.094799 65.54,115.13 C65.71,115.19 65.94,115.39 65.94,115.53 C65.9154945,115.735503 65.7815249,115.911577 65.59,115.99 C65.0344549,116.039974 64.4755451,116.039974 63.92,115.99 C63.7321572,115.903712 63.6031728,115.725411 63.58,115.52 C63.58,115.38 63.82,115.18 63.99,115.13 C64.2691918,115.099913 64.5508082,115.099913 64.83,115.13 Z" id="Path" fill="#403C4B"></path>
            <path d="M76.54,116 C76.2647949,116.040217 75.9852051,116.040217 75.71,116 C75.5209532,115.924289 75.3821561,115.759233 75.34,115.56 C75.380567,115.363302 75.5269451,115.205368 75.72,115.15 C76.2356879,115.105025 76.7543121,115.105025 77.27,115.15 C77.4698383,115.197376 77.63404,115.339186 77.71,115.53 C77.8,115.85 77.63,116.06 77.26,116.04 L76.54,116.04 L76.54,116 Z" id="Path" fill="#403C4B"></path>
            <path d="M127.53,116 C127.254456,116.035255 126.975544,116.035255 126.7,116 C126.547505,115.905159 126.453408,115.739549 126.45,115.56 C126.45,115.42 126.62,115.17 126.74,115.16 C127.335997,115.120014 127.934003,115.120014 128.53,115.16 C128.64,115.16 128.85,115.43 128.83,115.53 C128.81,115.63 128.63,115.97 128.48,116.01 C128.16431,116.04517 127.84569,116.04517 127.53,116.01 L127.53,116 Z" id="Path" fill="#403C4B"></path>
            <path d="M45,116 C44.7248052,116.040359 44.4451948,116.040359 44.17,116 C43.9958709,115.883038 43.8795619,115.697671 43.85,115.49 C43.85,115.39 44.06,115.16 44.19,115.15 C44.7457579,115.105017 45.3042421,115.105017 45.86,115.15 C46.0470878,115.220307 46.1836854,115.383465 46.22,115.58 C46.1679602,115.776159 46.0217722,115.933592 45.83,116 C45.5547949,116.040217 45.2752051,116.040217 45,116 Z" id="Path" fill="#403C4B"></path>
            <path d="M159.06,115.13 C159.335544,115.094745 159.614456,115.094745 159.89,115.13 C160.080964,115.197426 160.221813,115.361115 160.26,115.56 C160.216921,115.760959 160.067222,115.922174 159.87,115.98 C159.358721,116.044951 158.841279,116.044951 158.33,115.98 C158.15,115.98 158.02,115.65 157.87,115.48 C158.003742,115.328486 158.167099,115.205969 158.35,115.12 C158.585708,115.089872 158.824292,115.089872 159.06,115.12 L159.06,115.13 Z" id="Path" fill="#403C4B"></path>
            <path d="M13.66,116 C13.3274652,116.03263 12.9925348,116.03263 12.66,116 C12.55,116 12.41,115.72 12.41,115.56 C12.41,115.4 12.58,115.17 12.69,115.16 C13.2859967,115.120014 13.8840033,115.120014 14.48,115.16 C14.6,115.16 14.81,115.42 14.79,115.53 C14.7526521,115.732165 14.6283211,115.907691 14.45,116.01 C14.1747949,116.050217 13.8952051,116.050217 13.62,116.01 L13.66,116 Z" id="Path" fill="#403C4B"></path>
            <path d="M178.52,116 C178.22,115.87 177.58,116.3 177.52,115.56 C177.46,114.82 178.14,115.18 178.52,115.1 C178.754029,115.050028 178.995971,115.050028 179.23,115.1 C179.42,115.15 179.56,115.33 179.72,115.45 C179.57,115.63 179.46,115.88 179.27,115.97 C179.023859,116.025178 178.769762,116.035342 178.52,116 L178.52,116 Z" id="Path" fill="#403C4B"></path>
            <path d="M143.05,88.79 C143.206081,87.9664915 143.406371,87.1519802 143.65,86.35 C144.06743,85.0549297 145.289875,84.1910685 146.65,84.23 C148.04891,84.0915655 149.379012,84.8654434 149.95,86.15 C150.718382,87.7084909 150.826521,89.5108149 150.25,91.15 C149.802932,92.7599034 148.249525,93.8039969 146.59,93.61 C145.052321,93.6225434 143.72036,92.5460843 143.41,91.04 C143.247339,90.2974508 143.127144,89.546232 143.05,88.79 L143.05,88.79 Z" id="Path" fill="#FCFCFC"></path>
            <path d="M89.9,89.22 C90.0293604,88.3649959 90.2164549,87.51973 90.46,86.69 C90.9551807,85.197356 92.357432,84.1951706 93.93,84.21 C95.4182938,84.2435404 96.7150431,85.2332712 97.14,86.66 C97.9046216,88.6661185 97.8362205,90.8945536 96.95,92.85 C96.4552596,94.3128406 94.9890431,95.2160972 93.46,95 C91.9614705,94.9854913 90.6792164,93.9204268 90.39,92.45 C90.2513661,91.9952513 90.1477303,91.5305617 90.08,91.06 C90,90.54 90,90 89.9,89.22 Z" id="Path" fill="#FCFCFC"></path>
            <path d="M73.79,20.31 C73.6512197,21.0870883 73.453993,21.8525953 73.2,22.6 C72.7177678,23.4980227 71.8864249,24.1573267 70.9021631,24.4223202 C69.9179014,24.6873138 68.8679171,24.534521 68,24 C67.4247054,23.6059896 67.0961501,22.9407957 67.1329058,22.2444789 C67.1696615,21.5481621 67.5664216,20.9212546 68.18,20.59 C69.0692776,20.1524354 70.0052389,19.8169654 70.97,19.59 C71.58,19.41 72.22,19.34 72.84,19.18 C73.71,18.96 73.7,18.95 73.68,19.9 L73.68,20.25 L73.79,20.31 Z" id="Path" fill="#FBFBFC"></path>
            <path d="M118.29,91.78 C118.300098,91.9565224 118.300098,92.1334776 118.29,92.31 C118.11,95.04 116.29,96.41 113.64,95.91 C112.744839,95.7696175 112.031136,95.0878123 111.85,94.2 C111.661001,93.3134551 112.091885,92.4106497 112.9,92 C113.937518,91.5989872 114.999701,91.2649675 116.08,91 C116.58,90.86 117.08,90.77 117.59,90.63 C118.36,90.43 118.36,90.42 118.34,91.22 C118.34,91.39 118.31,91.55 118.29,91.78 Z" id="Path" fill="#FBFBFC"></path>
            <path d="M40.55,91.55 C40.55,91.91 40.55,92.27 40.46,92.62 C40.04,95.19 38.6,96.26 36.01,95.93 C35.0667017,95.8631864 34.2765399,95.1905358 34.06,94.27 C33.8307853,93.3016783 34.3160603,92.3060279 35.22,91.89 C36.0299703,91.5628478 36.8663241,91.3052508 37.72,91.12 C38.41,90.93 39.11,90.82 39.81,90.64 C40.51,90.46 40.54,90.43 40.55,91.19 L40.55,91.55 Z" id="Path" fill="#FCFCFC"></path>
            <path d="M107.11,51.84 L103.76,51.84 C103.34,51.84 103.23,51.73 103.33,51.28 C103.695694,49.3518974 105.367715,47.9473995 107.33,47.92 C109.188687,48.0007684 110.728442,49.3894844 111,51.23 C111.11,51.74 111,51.86 110.49,51.85 C109.35,51.83 108.23,51.84 107.11,51.84 Z" id="Path" fill="#FCFCFC"></path>
            <path d="M48.11,16.08 C47.03,16.08 45.95,16.08 44.88,16.08 C44.35,16.08 44.27,15.88 44.36,15.43 C44.7775486,13.5778115 46.3832023,12.2343054 48.28,12.15 C50.10245,12.2403866 51.6327403,13.5526516 52,15.34 C52.14,15.93 52,16.12 51.35,16.09 C50.27,16.05 49.19,16.08 48.11,16.08 Z" id="Path" fill="#FCFCFC"></path>
            <path d="M52.07,53.86 C52.0010458,55.0428232 51.7128164,56.2025227 51.22,57.28 C50.6499402,58.5600322 49.3491911,59.3555974 47.95,59.28 C46.58655,59.2984404 45.3565666,58.4638088 44.87,57.19 C43.9346915,55.0824423 43.9346915,52.6775577 44.87,50.57 C45.4131264,49.3074835 46.655615,48.4894116 48.03,48.4894116 C49.404385,48.4894116 50.6468736,49.3074835 51.19,50.57 C51.5592305,51.6449456 51.8532729,52.7442632 52.07,53.86 Z" id="Path" fill="#FDFDFD"></path>
            <path d="M175.55,121.56 C174.432621,121.574155 173.482134,120.748393 173.34,119.64 C173.326563,119.182085 173.496357,118.73773 173.811733,118.405459 C174.127109,118.073187 174.562008,117.880457 175.02,117.87 C176.173836,117.915935 177.123327,118.793367 177.26,119.94 C177.249549,120.382083 177.063141,120.801724 176.74212,121.105849 C176.421099,121.409974 175.992002,121.573443 175.55,121.56 L175.55,121.56 Z" id="Path" fill="#FEF7F3"></path>
            <path d="M175.12,129.55 C175.131153,130.424318 174.434235,131.143573 173.56,131.16 C172.431144,131.2109 171.473975,130.338713 171.42,129.21 C171.384137,128.810685 171.51181,128.413904 171.773812,128.110434 C172.035814,127.806964 172.409725,127.622773 172.81,127.6 C173.962176,127.572747 174.953513,128.40959 175.12,129.55 Z" id="Path" fill="#FEF7F3"></path>
        </g>
    </g>
</svg>